<?xml version="1.0" standalone="no"?>
<!DOCTYPE svg PUBLIC "-//W3C//DTD SVG 20010904//EN"
 "http://www.w3.org/TR/2001/REC-SVG-20010904/DTD/svg10.dtd">
<svg version="1.0" xmlns="http://www.w3.org/2000/svg"
 width="3000.000000pt" height="2000.000000pt" viewBox="0 0 3000.000000 2000.000000"
 preserveAspectRatio="xMidYMid meet">

<g transform="translate(0.000000,2000.000000) scale(0.100000,-0.100000)"
fill="#000000" stroke="none">
<path d="M4975 13469 c-516 -39 -929 -235 -1166 -553 -109 -146 -210 -387
-225 -536 -7 -72 16 -111 78 -133 49 -18 719 -91 748 -82 39 12 77 72 108 169
63 193 168 297 362 357 106 33 286 33 379 0 131 -46 219 -127 261 -239 34 -91
43 -156 44 -347 l1 -180 -160 -17 c-467 -50 -687 -83 -886 -133 -652 -165
-1021 -583 -1055 -1196 -16 -280 53 -558 187 -759 95 -142 205 -235 371 -315
156 -75 259 -97 488 -102 305 -8 505 29 705 130 136 68 225 132 397 290 l96
88 48 -68 c103 -148 159 -215 251 -304 163 -155 203 -156 363 -14 41 37 168
148 282 246 222 192 233 206 217 278 -4 19 -21 53 -37 75 -16 23 -54 77 -86
121 -32 43 -75 115 -96 160 -77 158 -73 104 -80 1120 -7 973 -8 988 -60 1173
-107 381 -428 637 -924 737 -205 41 -390 51 -611 34z m595 -2261 c-1 -333 -30
-540 -98 -689 -91 -203 -254 -352 -423 -389 -32 -7 -95 -11 -146 -8 -115 5
-198 43 -267 119 -90 101 -127 214 -127 394 0 240 74 404 239 525 157 116 423
186 720 189 l102 1 0 -142z"/>
<path d="M14338 13470 c-212 -18 -437 -68 -600 -134 -115 -46 -157 -68 -253
-130 -267 -174 -440 -419 -521 -737 -31 -122 -27 -155 21 -198 42 -36 22 -33
434 -77 373 -39 374 -39 416 25 13 20 29 59 36 86 34 144 132 273 258 339 90
47 160 66 266 72 210 14 385 -67 463 -214 53 -100 64 -157 69 -378 l5 -200
-173 -18 c-605 -61 -920 -122 -1157 -224 -463 -200 -738 -577 -771 -1054 -8
-126 1 -315 20 -407 92 -448 382 -731 827 -807 136 -23 465 -15 607 16 249 53
457 172 689 391 53 51 98 90 100 88 2 -2 39 -56 82 -119 52 -76 118 -154 196
-231 123 -124 160 -146 225 -136 44 7 64 23 303 232 108 93 225 195 262 225
37 30 74 71 84 90 26 53 8 102 -91 239 -89 123 -151 244 -181 351 -16 60 -18
143 -24 990 -6 808 -9 936 -24 1010 -50 255 -129 404 -293 560 -184 174 -441
285 -773 334 -135 20 -365 27 -502 16z m592 -2307 c0 -330 -29 -512 -106 -665
-96 -192 -214 -304 -379 -360 -49 -16 -79 -19 -165 -16 -90 3 -113 8 -165 33
-82 39 -149 109 -190 198 -45 97 -58 182 -53 325 15 360 229 569 655 642 136
22 172 26 306 28 l97 2 0 -187z"/>
<path d="M9083 13425 c-236 -43 -430 -160 -568 -343 -54 -71 -120 -189 -171
-307 -6 -12 -11 78 -14 240 -5 282 -7 291 -63 325 -30 19 -53 20 -405 20 -410
0 -410 0 -446 -60 -15 -26 -16 -185 -16 -1895 0 -1710 1 -1869 16 -1895 36
-60 33 -60 474 -60 l402 0 39 39 39 39 0 1053 c1 1127 7 1354 40 1520 58 289
209 429 461 429 256 0 392 -156 428 -492 7 -62 11 -526 11 -1295 0 -1171 1
-1199 20 -1230 38 -63 38 -63 472 -63 367 0 395 1 424 19 68 41 64 -35 64
1234 0 1150 3 1271 37 1422 41 187 154 318 324 375 54 19 80 21 169 18 209 -9
315 -87 374 -277 20 -65 21 -89 26 -1386 5 -1275 6 -1321 24 -1348 38 -57 40
-57 468 -57 372 0 395 1 425 20 67 40 62 -73 63 1551 1 1282 -1 1487 -15 1574
-41 265 -113 414 -276 571 -276 264 -712 346 -1098 208 -247 -88 -452 -280
-568 -530 l-34 -75 -49 95 c-26 53 -70 128 -96 168 -60 93 -200 233 -281 282
-82 49 -202 92 -310 111 -103 18 -291 18 -390 0z"/>
<path d="M21230 13430 c-416 -57 -761 -264 -1003 -601 -80 -111 -213 -375
-257 -509 -47 -144 -88 -318 -112 -485 -18 -125 -22 -195 -22 -415 0 -365 35
-612 129 -897 207 -628 626 -1026 1190 -1129 151 -28 443 -25 585 5 297 63
539 192 750 401 302 300 487 705 562 1235 17 120 17 568 0 705 -36 293 -116
579 -223 800 -101 210 -205 356 -356 501 -201 192 -425 309 -708 369 -113 24
-421 36 -535 20z m349 -751 c247 -57 368 -288 416 -794 33 -348 28 -820 -10
-1079 -51 -336 -163 -545 -343 -633 -75 -38 -77 -38 -197 -38 -116 0 -123 1
-187 33 -147 72 -251 243 -312 515 -67 295 -83 1018 -31 1365 52 343 184 560
378 621 70 22 213 27 286 10z"/>
<path d="M25308 13426 c-317 -56 -542 -247 -709 -601 -27 -57 -49 -109 -49
-115 0 -5 -4 -10 -10 -10 -6 0 -10 104 -10 291 l0 291 -39 39 -39 39 -376 0
c-426 0 -423 1 -457 -73 -18 -41 -19 -87 -19 -1367 0 -729 3 -1566 7 -1860 l6
-535 38 -38 37 -38 412 3 412 3 34 37 34 38 0 997 c1 1022 7 1307 35 1449 18
95 62 228 99 301 43 85 136 177 224 221 73 36 80 37 181 37 98 0 111 -3 173
-32 155 -73 230 -221 258 -508 6 -69 10 -548 10 -1288 l0 -1177 34 -38 34 -37
409 -3 c395 -2 409 -2 441 18 67 41 64 -53 59 1479 -3 1207 -6 1402 -20 1506
-37 273 -89 440 -180 575 -128 191 -308 317 -533 376 -82 22 -127 27 -259 30
-105 2 -186 -1 -237 -10z"/>
<path d="M16856 13349 c-54 -43 -56 -54 -56 -369 0 -309 2 -321 50 -365 21
-19 40 -20 667 -25 l645 -5 -707 -1014 c-389 -558 -718 -1035 -731 -1061 -48
-96 -54 -149 -54 -525 0 -330 1 -352 20 -382 20 -34 66 -63 98 -63 11 0 75 27
143 59 559 268 1220 327 1834 166 171 -45 280 -83 453 -162 132 -59 145 -63
176 -53 40 13 60 33 81 83 12 30 15 87 15 316 0 162 -5 301 -11 330 -22 104
-93 162 -313 255 -279 119 -568 177 -979 194 l-158 7 661 944 c364 519 676
972 693 1005 l32 61 3 250 c4 284 -1 315 -57 352 l-34 23 -1222 0 -1222 0 -27
-21z"/>
</g>
</svg>
