<?xml version="1.0" standalone="no"?>
<!DOCTYPE svg PUBLIC "-//W3C//DTD SVG 20010904//EN"
 "http://www.w3.org/TR/2001/REC-SVG-20010904/DTD/svg10.dtd">
<svg version="1.0" xmlns="http://www.w3.org/2000/svg"
 width="1200.000000pt" height="600.000000pt" viewBox="0 0 1200.000000 600.000000"
 preserveAspectRatio="xMidYMid meet">

<g transform="translate(0.000000,600.000000) scale(0.100000,-0.100000)"
fill="#000000" stroke="none">
<path d="M2760 4846 c-318 -96 -547 -364 -585 -687 -4 -32 -4 -71 0 -88 6 -29
10 -31 50 -31 141 0 317 82 440 206 145 144 235 352 235 541 l0 83 -32 -1
c-18 0 -67 -10 -108 -23z"/>
<path d="M2655 3976 c-49 -13 -157 -50 -240 -81 -202 -77 -218 -77 -430 3
-213 80 -292 97 -414 89 -117 -8 -220 -36 -325 -88 -96 -48 -142 -81 -225
-162 -277 -271 -370 -690 -265 -1205 82 -409 297 -826 564 -1094 79 -80 110
-104 175 -135 71 -33 86 -37 159 -36 67 0 99 6 186 38 58 20 143 51 190 68 65
23 108 31 182 35 124 6 193 -7 338 -65 63 -25 138 -52 165 -59 118 -32 261 -7
365 62 162 109 409 460 517 736 61 155 64 136 -30 188 -97 53 -234 184 -286
272 -85 146 -115 268 -108 448 3 99 9 141 30 205 50 152 165 310 290 400 31
22 56 45 57 51 0 22 -142 164 -210 209 -139 93 -278 135 -465 141 -115 4 -141
2 -220 -20z"/>
<path d="M9450 2930 l0 -1060 130 0 130 0 0 1060 0 1060 -130 0 -130 0 0
-1060z"/>
<path d="M4965 3880 c-5 -9 -85 -241 -510 -1497 l-174 -513 134 0 133 0 107
320 107 320 355 -2 355 -3 107 -315 107 -315 137 -3 c75 -1 137 1 137 5 0 15
-673 1988 -683 2001 -12 15 -302 17 -312 2z m190 -366 c18 -71 86 -281 149
-466 l115 -338 -300 0 c-164 0 -299 3 -299 8 0 4 43 136 95 292 53 157 111
341 131 410 62 222 65 232 70 227 3 -2 20 -62 39 -133z"/>
<path d="M6815 3344 c-167 -35 -286 -110 -388 -244 l-26 -35 -1 90 c0 50 -3
107 -6 128 l-7 37 -115 0 -115 0 6 -257 c4 -141 7 -600 7 -1020 l0 -763 130 0
130 0 0 392 0 391 54 -60 c202 -223 605 -215 834 16 149 151 214 333 214 601
0 111 -5 152 -25 231 -67 256 -230 432 -449 484 -58 14 -196 18 -243 9z m197
-241 c107 -50 173 -130 226 -272 34 -90 43 -292 18 -403 -43 -192 -141 -314
-295 -363 -79 -26 -217 -18 -293 17 -104 48 -190 148 -222 257 -23 78 -23 395
0 472 46 156 151 271 287 315 26 9 74 13 127 11 71 -2 97 -8 152 -34z"/>
<path d="M8413 3335 c-98 -21 -189 -71 -263 -145 -36 -36 -75 -78 -87 -95
l-22 -30 -1 75 c0 41 -3 99 -6 128 l-7 52 -115 0 -115 0 6 -272 c4 -149 7
-608 7 -1020 l0 -748 130 0 130 0 0 391 0 390 55 -59 c202 -219 600 -213 827
11 148 145 219 339 219 597 1 253 -71 445 -219 587 -63 61 -184 124 -270 142
-70 15 -192 13 -269 -4z m239 -232 c165 -77 258 -260 258 -502 -1 -283 -109
-472 -309 -536 -79 -26 -217 -18 -293 17 -67 31 -147 102 -182 162 -47 80 -56
135 -56 334 0 170 2 189 25 259 29 87 64 141 128 200 84 77 157 104 277 100
71 -2 97 -8 152 -34z"/>
<path d="M10515 3334 c-122 -26 -209 -75 -305 -173 -98 -98 -154 -198 -191
-336 -27 -103 -36 -296 -19 -403 64 -402 373 -617 823 -573 184 18 365 67 353
96 -2 7 -12 50 -22 94 -14 67 -20 81 -33 75 -83 -36 -186 -56 -313 -61 -154
-6 -233 5 -315 44 -69 32 -152 109 -186 171 -31 58 -67 187 -67 244 l0 38 505
0 505 0 6 26 c11 42 -4 253 -21 319 -9 33 -35 98 -57 145 -48 100 -142 201
-227 244 -122 62 -287 81 -436 50z m290 -204 c62 -31 117 -85 150 -151 27 -52
55 -160 55 -211 l0 -28 -385 0 -385 0 6 28 c25 110 51 171 107 249 36 51 116
108 178 128 69 23 211 15 274 -15z"/>
</g>
</svg>
