<?xml version="1.0" standalone="no"?>
<!DOCTYPE svg PUBLIC "-//W3C//DTD SVG 20010904//EN"
 "http://www.w3.org/TR/2001/REC-SVG-20010904/DTD/svg10.dtd">
<svg version="1.0" xmlns="http://www.w3.org/2000/svg"
 width="3000.000000pt" height="2000.000000pt" viewBox="0 0 3000.000000 2000.000000"
 preserveAspectRatio="xMidYMid meet">

<g transform="translate(0.000000,2000.000000) scale(0.100000,-0.100000)"
fill="#000000" stroke="none">
<path d="M5295 12313 c-69 -9 -241 -57 -323 -89 -360 -144 -711 -469 -961
-888 -272 -457 -437 -947 -512 -1524 -26 -202 -40 -548 -28 -721 51 -773 408
-1268 999 -1386 109 -22 338 -30 443 -16 499 67 887 438 1435 1371 117 200
598 1045 606 1065 2 7 7 7 14 0 6 -5 185 -300 397 -655 374 -622 545 -890 684
-1070 334 -432 575 -617 900 -691 113 -26 367 -36 482 -20 247 35 437 128 605
295 238 237 382 619 416 1107 20 278 -11 725 -72 1044 -132 686 -430 1297
-829 1695 -229 229 -441 360 -701 436 -431 126 -836 27 -1225 -298 -157 -131
-378 -373 -543 -593 l-22 -30 -22 26 c-13 14 -69 79 -125 145 -133 157 -352
369 -480 466 -319 240 -607 340 -968 336 -77 0 -153 -3 -170 -5z m3340 -608
c84 -23 248 -105 327 -165 101 -76 247 -236 331 -362 262 -392 423 -893 488
-1518 16 -156 16 -531 0 -650 -38 -273 -138 -453 -295 -530 -80 -39 -161 -53
-269 -47 -124 7 -209 49 -330 166 -189 181 -408 508 -982 1461 -147 245 -322
528 -387 629 -104 161 -118 188 -108 205 21 39 175 255 241 338 230 289 435
438 670 488 60 13 241 4 314 -15z m-2977 -162 c279 -67 536 -288 875 -755 l77
-106 -161 -249 c-89 -136 -252 -390 -362 -563 -493 -774 -653 -1004 -837
-1194 -109 -112 -191 -175 -282 -214 -58 -24 -74 -27 -199 -27 l-135 0 -78 38
c-251 125 -362 446 -335 971 39 742 300 1447 683 1844 228 236 480 321 754
255z"/>
<path d="M11930 9970 l0 -2210 355 0 355 0 2 1693 3 1692 651 -1170 651 -1170
336 -3 335 -2 649 1167 648 1167 3 -1687 2 -1687 360 0 360 0 -2 2208 -3 2207
-426 3 -426 2 -744 -1345 c-561 -1014 -746 -1342 -754 -1332 -5 8 -341 613
-745 1346 l-735 1331 -437 0 -438 0 0 -2210z"/>
<path d="M21270 11535 l0 -485 -330 0 -330 0 0 -290 0 -290 328 -2 327 -3 5
-915 c4 -675 9 -932 18 -980 56 -287 135 -453 287 -605 102 -101 197 -161 328
-206 161 -55 231 -64 487 -64 238 0 279 4 468 46 l92 21 0 289 0 290 -32 -6
c-133 -22 -181 -27 -323 -32 -311 -11 -465 50 -555 219 -85 158 -91 251 -88
1188 l3 755 498 3 497 2 0 290 0 290 -500 0 -500 0 0 485 0 485 -340 0 -340 0
0 -485z"/>
<path d="M18700 11119 c-639 -68 -1126 -465 -1329 -1086 -122 -369 -131 -795
-26 -1175 76 -276 202 -503 390 -697 305 -316 719 -481 1208 -481 386 0 763
98 1060 276 72 44 274 192 300 222 19 20 16 24 -169 250 l-188 230 -63 -53
c-265 -226 -494 -311 -858 -322 -159 -4 -192 -2 -285 17 -193 40 -326 107
-456 232 -91 87 -158 181 -209 292 -35 74 -80 218 -91 288 l-7 38 1212 0 1211
0 0 148 c-1 630 -169 1115 -500 1441 -295 290 -736 430 -1200 380z m400 -614
c92 -24 235 -96 302 -152 112 -94 201 -229 254 -387 27 -77 54 -211 54 -262
l0 -34 -866 0 -866 0 7 43 c13 78 56 211 94 292 52 111 98 180 172 259 126
135 271 215 454 252 90 18 306 12 395 -11z"/>
<path d="M24644 11120 c-511 -58 -914 -339 -1154 -802 -272 -526 -279 -1257
-15 -1803 207 -431 554 -709 1005 -806 139 -30 436 -33 573 -6 194 39 392 124
532 229 82 62 189 167 237 234 l33 46 3 -226 2 -226 340 0 340 0 0 1645 0
1645 -340 0 -340 0 0 -206 0 -207 -86 92 c-190 202 -404 319 -679 372 -113 22
-342 32 -451 19z m571 -648 c275 -77 500 -268 611 -518 l24 -55 0 -499 0 -498
-41 -80 c-198 -388 -650 -589 -1109 -496 -222 46 -417 184 -543 387 -236 377
-230 1039 13 1397 130 193 320 321 550 371 117 26 391 21 495 -9z"/>
</g>
</svg>
